<svg xmlns="http://www.w3.org/2000/svg" width="360" height="360" viewBox="0 0 360 360">
<g>
<path d="M 105.53 163.25 C105.26,161.19 104.38,154.77 103.59,149.00 C102.79,143.23 101.85,135.57 101.49,132.00 C100.76,124.65 100.60,121.79 99.13,120.68 C98.07,119.89 96.34,120.00 93.26,120.00 L 86.77 120.00 L 87.40 126.75 C88.52,138.77 91.14,162.44 91.59,164.75 C92.00,166.83 92.58,167.00 99.03,167.00 L 99.35 167.00 C94.71,167.00 93.12,167.45 91.05,169.36 C86.76,173.33 62.48,175.66 57.71,172.56 C55.97,171.42 53.82,171.30 46.03,171.98 C54.49,171.16 56.00,170.67 55.99,169.69 C55.96,167.13 47.49,128.60 46.66,127.26 C46.30,126.68 43.96,126.59 40.78,127.05 C37.88,127.46 33.40,128.06 30.83,128.37 L 26.17 128.94 L 25.49 124.72 C25.13,122.40 23.74,114.97 22.42,108.22 C20.46,98.18 20.25,95.58 21.26,93.96 C22.77,91.53 23.08,91.44 35.50,89.56 C41.00,88.72 51.12,87.13 58.00,86.02 C64.88,84.91 75.22,83.30 81.00,82.43 C86.78,81.56 93.53,80.45 96.00,79.97 C99.88,79.21 100.73,79.36 102.16,81.04 C104.24,83.49 105.80,83.49 114.50,81.00 C120.40,79.31 124.46,79.00 140.50,79.02 C159.42,79.03 159.52,79.05 164.18,81.79 C166.75,83.30 169.82,85.77 171.00,87.27 C173.77,90.79 175.00,90.73 175.00,87.07 C175.00,85.08 175.88,83.44 177.75,81.95 C180.49,79.76 180.63,79.75 213.80,80.27 C241.53,80.70 248.60,80.72 250.39,83.81 C251.06,84.95 251.00,86.51 251.00,88.65 C251.00,93.34 251.48,93.74 254.53,91.63 C258.21,89.07 270.57,87.00 282.20,86.99 C295.55,86.98 304.84,88.85 314.00,93.38 C323.25,97.97 323.26,99.58 314.05,117.33 C306.93,131.06 305.93,134.24 308.30,135.70 C311.42,137.62 313.88,142.92 314.83,149.74 C315.95,157.81 315.01,162.43 311.18,167.77 C309.91,169.55 309.23,171.00 309.68,171.01 C310.13,171.01 314.33,171.47 319.00,172.02 C321.69,172.34 325.67,172.78 329.66,173.20 C325.60,172.79 321.77,172.38 319.50,172.12 C310.77,171.12 305.25,171.73 301.94,174.06 C292.32,180.85 275.43,182.59 259.43,178.45 C253.43,176.90 241.95,172.74 238.76,170.97 C236.44,169.68 233.66,169.74 232.27,171.13 C231.43,171.97 226.94,171.96 214.82,171.11 C205.84,170.49 194.15,169.87 188.83,169.74 C180.31,169.53 178.87,169.23 176.72,167.21 C174.54,165.16 173.85,165.03 169.89,165.91 C167.47,166.46 163.81,167.60 161.77,168.45 C156.52,170.65 152.90,170.38 149.00,167.50 C144.83,164.42 140.31,164.29 135.54,167.11 C130.53,170.07 112.93,171.05 108.26,168.63 C106.41,167.68 102.71,167.00 99.35,167.00 L 106.02 167.00 ZM 112.54 165.07 C113.26,166.23 116.63,166.11 125.00,164.64 L 131.50 163.50 L 132.00 153.04 L 132.50 142.58 L 139.50 150.44 C143.35,154.77 147.88,159.88 149.57,161.79 L 152.64 165.28 L 158.07 163.92 C166.32,161.85 172.31,159.58 172.71,158.37 C172.91,157.77 169.01,152.74 164.04,147.20 C159.07,141.67 155.00,136.66 155.00,136.09 C155.00,135.51 156.69,134.17 158.75,133.11 C163.22,130.80 169.07,124.85 171.63,120.00 C174.33,114.88 174.12,102.91 171.23,97.36 C168.54,92.20 162.58,87.41 155.76,84.91 C151.59,83.39 147.83,83.00 137.28,83.00 C124.82,83.00 122.01,83.35 109.50,86.46 L 104.50 87.70 L 104.75 97.10 C105.06,108.74 111.28,163.03 112.54,165.07 ZM 268.50 175.43 C272.35,176.34 287.55,175.04 292.43,173.37 C301.25,170.36 307.99,161.54 307.99,153.00 C307.99,143.80 303.40,137.97 292.01,132.73 C287.33,130.57 281.55,127.89 279.17,126.77 C273.63,124.18 271.92,120.86 274.59,117.89 C276.31,115.99 277.29,115.83 284.50,116.26 C289.61,116.56 294.11,117.48 296.96,118.80 C299.41,119.93 301.70,120.68 302.06,120.46 C303.55,119.54 312.12,100.76 311.64,99.49 C310.49,96.50 290.55,92.00 278.50,92.01 C265.18,92.03 257.38,94.84 250.34,102.17 C245.19,107.52 242.99,112.70 243.02,119.37 C243.07,131.35 249.29,137.52 268.29,144.45 C273.65,146.40 279.00,150.46 279.00,152.57 C279.00,153.33 277.86,154.70 276.47,155.61 C272.84,157.99 264.27,156.90 256.46,153.06 C253.05,151.37 249.63,150.00 248.88,150.01 C247.65,150.02 239.92,163.30 239.98,165.31 C240.02,166.69 252.12,171.68 259.50,173.36 C263.35,174.23 267.40,175.16 268.50,175.43 ZM 207.50 165.95 C212.45,166.35 219.55,166.75 223.27,166.84 C226.37,166.91 228.13,167.14 229.36,166.44 C231.28,165.35 231.94,162.02 234.49,152.39 C234.99,150.49 234.52,150.22 229.77,149.65 C226.87,149.30 219.90,149.01 214.29,149.01 C202.57,149.00 201.46,148.24 202.61,141.05 L 203.25 137.04 L 227.41 137.50 L 228.08 133.50 C228.45,131.30 229.05,127.43 229.42,124.89 L 230.08 120.29 L 217.79 119.58 C211.03,119.19 205.14,118.51 204.69,118.07 C204.24,117.64 204.02,115.08 204.19,112.39 L 204.50 107.50 L 220.88 107.50 C234.42,107.50 237.40,107.24 238.07,106.00 C238.82,104.60 243.00,87.42 243.00,85.75 C243.00,85.34 228.82,85.00 211.50,85.00 L 180.00 85.00 L 180.00 123.80 C180.00,152.64 180.31,162.91 181.20,163.80 C181.91,164.51 185.66,165.04 190.45,165.11 C194.88,165.16 202.55,165.54 207.50,165.95 ZM 60.55 168.17 C61.12,169.96 61.77,170.17 65.36,169.67 C67.64,169.36 72.58,168.79 76.34,168.41 C80.70,167.96 83.37,167.21 83.71,166.33 C84.00,165.57 83.70,161.47 83.04,157.22 C78.92,130.63 77.20,116.30 77.98,115.04 C78.30,114.52 82.82,113.58 88.03,112.96 C93.24,112.34 97.88,111.47 98.33,111.03 C98.79,110.59 98.84,104.50 98.44,97.49 L 97.71 84.75 L 92.11 85.35 C89.02,85.68 82.00,86.63 76.50,87.47 C66.10,89.06 49.61,91.40 35.00,93.36 C30.33,93.99 25.91,94.88 25.18,95.35 C23.83,96.22 24.00,98.97 25.99,109.00 C26.48,111.47 27.14,115.14 27.47,117.15 C27.79,119.16 28.71,121.06 29.52,121.37 C30.32,121.68 35.11,121.04 40.17,119.96 C45.22,118.88 49.70,118.00 50.11,118.00 C51.40,118.00 52.58,123.37 56.46,147.00 C58.29,158.11 59.74,165.59 60.55,168.17 ZM 325.00 260.92 C320.88,260.48 311.88,259.65 305.00,259.09 C287.44,257.64 261.47,255.28 241.50,253.32 C219.81,251.20 118.17,250.80 97.50,252.76 C90.35,253.43 77.07,254.66 68.00,255.48 C58.92,256.31 47.00,257.42 41.50,257.96 C36.00,258.50 26.24,258.96 19.82,258.97 C12.78,258.99 9.29,259.06 7.93,257.39 C6.70,255.86 7.25,252.89 8.52,247.10 C7.80,251.02 7.92,252.83 8.83,253.40 C9.29,253.68 12.56,253.50 16.08,252.99 C19.61,252.48 27.23,251.37 33.00,250.53 C38.78,249.70 55.20,248.01 69.50,246.79 C92.60,244.82 101.96,244.57 153.50,244.58 C212.18,244.60 229.82,245.40 273.75,250.03 C278.84,250.56 287.39,251.45 292.75,252.01 C298.11,252.56 303.55,253.26 304.83,253.55 C306.12,253.84 311.97,254.71 317.83,255.47 C329.70,257.02 346.26,259.92 346.91,260.58 C347.74,261.40 349.07,260.98 349.54,259.75 C349.80,259.06 346.64,248.15 342.51,235.50 C338.38,222.85 335.00,211.66 335.00,210.64 C335.00,209.62 338.80,202.41 343.44,194.63 C348.08,186.84 352.17,179.72 352.52,178.81 C353.32,176.72 351.51,175.68 344.08,174.71 C352.60,175.78 355.45,176.96 357.38,179.62 C357.84,180.25 358.25,180.63 358.48,181.10 C359.36,182.91 357.42,186.08 344.25,210.29 L 341.64 215.07 L 348.47 237.29 C352.23,249.50 355.51,260.06 355.76,260.75 C356.29,262.20 337.83,262.30 325.00,260.92 ZM 140.27 123.10 C137.83,124.15 134.56,125.00 133.00,125.00 C130.25,125.00 130.14,124.79 129.50,118.75 C129.14,115.31 128.99,110.47 129.17,108.00 L 129.50 103.50 L 137.60 103.50 C147.57,103.50 149.00,104.44 149.00,110.99 C149.00,116.89 146.42,120.46 140.27,123.10 ZM 237.81 142.91 C240.39,142.31 243.08,141.65 243.78,141.43 C244.69,141.15 244.32,139.93 242.51,137.19 C239.43,132.54 238.14,128.54 237.02,120.17 C236.55,116.69 236.02,113.70 235.84,113.53 C234.87,112.64 210.04,112.61 210.01,113.50 C209.99,114.05 212.11,114.61 214.73,114.74 C217.36,114.87 222.72,115.24 226.65,115.56 L 233.80 116.15 L 234.78 120.33 C235.46,123.19 235.40,127.01 234.60,132.50 L 233.43 140.50 L 221.46 140.76 C208.72,141.04 206.51,141.40 207.50,142.99 C208.34,144.36 231.85,144.29 237.81,142.91 ZM 174.00 138.49 L 174.00 129.98 L 169.02 133.24 C166.28,135.03 164.03,136.88 164.02,137.34 C164.00,138.19 172.68,147.00 173.54,147.00 C173.79,147.00 174.00,143.17 174.00,138.49 ZM 142.87 161.10 C137.91,155.36 137.00,155.27 137.00,160.53 L 137.00 165.00 L 146.23 165.00 ZM 139.78 115.44 C143.15,113.08 142.71,110.00 139.00,110.00 C136.24,110.00 136.00,110.28 136.00,113.50 C136.00,117.41 136.56,117.70 139.78,115.44 ZM 8.05 193.78 C4.93,186.07 2.09,179.68 1.41,178.92 C0.63,178.05 0.00,177.12 0.00,176.85 C0.00,176.60 2.94,176.13 7.86,175.55 C1.99,176.53 0.49,177.68 1.89,179.38 C2.33,179.92 4.97,186.12 8.05,193.78 ZM 9.92 240.74 C11.06,235.57 12.48,229.13 13.48,224.56 L 15.24 216.56 L 13.41 225.05 C12.26,230.34 10.83,236.78 9.92,240.74 ZM 31.13 173.27 C32.09,173.19 33.05,173.11 34.03,173.03 C33.06,173.11 32.09,173.19 31.13,173.27 Z" fill="rgba(17,42,99,1)"/>
<path d="M 346.91 260.58 C346.26,259.92 329.70,257.02 317.83,255.47 C311.97,254.71 306.12,253.84 304.83,253.55 C303.55,253.26 298.11,252.56 292.75,252.01 C287.39,251.45 278.84,250.56 273.75,250.03 C229.82,245.40 212.18,244.60 153.50,244.58 C101.96,244.57 92.60,244.82 69.50,246.79 C55.20,248.01 38.78,249.70 33.00,250.53 C27.23,251.37 19.61,252.48 16.08,252.99 C12.56,253.50 9.29,253.68 8.83,253.40 C7.63,252.65 7.80,249.75 9.46,242.71 C10.27,239.29 12.04,231.35 13.41,225.05 L 15.88 213.61 L 9.35 197.05 C5.75,187.95 2.40,180.00 1.89,179.38 C-0.31,176.70 4.65,175.40 22.50,173.98 C29.10,173.45 39.22,172.59 45.00,172.07 C53.64,171.29 55.89,171.38 57.71,172.56 C62.48,175.66 86.76,173.33 91.05,169.36 C93.12,167.45 94.71,167.00 99.35,167.00 C102.71,167.00 106.41,167.68 108.26,168.63 C112.93,171.05 130.53,170.07 135.54,167.11 C140.31,164.29 144.83,164.42 149.00,167.50 C152.90,170.38 156.52,170.65 161.77,168.45 C163.81,167.60 167.47,166.46 169.89,165.91 C173.85,165.03 174.54,165.16 176.72,167.21 C178.87,169.23 180.31,169.53 188.83,169.74 C194.15,169.87 205.84,170.49 214.82,171.11 C226.94,171.96 231.43,171.97 232.27,171.13 C233.66,169.74 236.44,169.68 238.76,170.97 C241.95,172.74 253.43,176.90 259.43,178.45 C275.43,182.59 292.32,180.85 301.94,174.06 C305.25,171.73 310.77,171.12 319.50,172.12 C323.35,172.56 331.66,173.42 337.96,174.04 C350.52,175.26 353.51,176.24 352.52,178.81 C352.17,179.72 348.08,186.84 343.44,194.63 C338.80,202.41 335.00,209.62 335.00,210.64 C335.00,211.66 338.38,222.85 342.51,235.50 C346.64,248.15 349.80,259.06 349.54,259.75 C349.07,260.98 347.74,261.40 346.91,260.58 ZM 196.94 230.41 C198.67,232.93 200.69,235.00 201.41,235.00 C202.97,235.00 213.10,231.01 214.40,229.88 C215.47,228.96 213.71,226.19 208.12,220.00 C205.89,217.52 204.04,215.26 204.03,214.96 C204.01,214.67 205.99,212.76 208.43,210.72 C218.91,201.96 215.87,185.57 202.62,179.40 C198.15,177.32 196.01,177.02 185.86,177.01 C178.68,177.00 174.68,176.60 172.53,178.40 C169.50,180.94 170.15,187.87 170.71,206.50 L 171.50 232.50 L 186.50 232.50 L 187.00 225.57 L 187.50 218.65 L 190.64 222.23 C192.36,224.20 195.20,227.88 196.94,230.41 ZM 252.16 236.88 C252.96,238.96 253.52,239.18 256.79,238.64 C258.83,238.30 261.96,238.02 263.75,238.01 C266.81,238.00 267.00,237.79 267.00,234.40 C267.00,230.42 265.10,223.12 261.31,212.50 C257.97,203.14 256.14,196.08 255.37,189.48 C255.02,186.48 254.14,183.53 253.42,182.94 C252.71,182.34 248.80,181.60 244.75,181.30 L 237.38 180.74 L 231.53 194.62 C226.11,207.46 219.90,223.78 217.98,230.20 C216.91,233.78 218.13,234.62 225.61,235.47 L 231.72 236.16 L 233.37 232.04 L 235.02 227.91 L 242.24 228.21 C249.30,228.49 249.48,228.57 250.35,231.50 C250.84,233.15 251.66,235.57 252.16,236.88 ZM 282.00 242.08 C288.84,244.24 301.55,244.51 306.13,242.59 C312.19,240.05 316.02,234.49 315.96,228.32 C315.90,221.02 311.43,215.99 300.55,210.97 C291.97,207.00 289.45,204.60 292.10,202.91 C294.26,201.55 302.22,201.91 305.00,203.50 C309.23,205.92 310.36,205.27 313.26,198.72 C314.78,195.30 316.02,192.22 316.01,191.89 C316.00,191.31 312.24,189.84 303.93,187.15 C295.68,184.49 285.00,186.61 278.87,192.13 C275.04,195.59 274.00,198.20 274.00,204.40 C274.00,211.80 277.11,215.31 288.53,220.84 C295.92,224.42 297.09,225.33 296.82,227.26 C296.29,231.01 289.91,230.41 278.81,225.57 C277.48,224.99 276.57,225.91 274.56,229.88 C273.15,232.66 272.00,235.61 272.00,236.43 C272.00,238.25 274.72,239.78 282.00,242.08 ZM 81.74 233.41 C82.47,234.14 101.75,233.29 111.50,232.11 L 116.50 231.50 L 116.80 225.59 C116.97,222.34 116.68,219.42 116.15,219.09 C115.63,218.77 111.25,218.73 106.42,219.00 C97.49,219.51 95.00,218.75 95.00,215.54 C95.00,213.66 97.32,213.00 103.96,213.00 C111.03,213.00 112.22,211.84 111.81,205.33 L 111.50 200.50 L 95.50 200.50 L 95.19 197.34 L 94.89 194.19 L 103.69 193.54 C108.54,193.18 113.18,192.79 114.00,192.68 C115.13,192.53 115.57,190.82 115.80,185.72 L 116.09 178.96 L 96.80 179.23 L 77.50 179.50 L 77.77 189.50 C77.92,195.00 78.71,204.75 79.52,211.17 C80.34,217.59 81.00,225.05 81.00,227.75 C81.00,230.46 81.33,233.00 81.74,233.41 ZM 134.64 218.05 L 135.31 232.00 L 150.00 232.00 L 150.00 195.23 L 156.50 194.82 C160.07,194.59 163.45,193.95 164.01,193.39 C164.66,192.74 164.75,189.85 164.26,185.43 L 163.49 178.50 L 142.49 178.86 C128.26,179.11 121.26,179.59 120.77,180.36 C119.88,181.74 119.76,191.21 120.61,193.42 C121.06,194.61 122.64,195.00 126.97,195.00 L 132.73 195.00 L 133.35 199.55 C133.70,202.06 134.28,210.38 134.64,218.05 ZM 39.66 235.88 C40.08,238.13 40.40,238.23 45.30,237.64 C48.16,237.29 55.45,236.51 61.50,235.89 C67.55,235.27 73.06,234.61 73.75,234.42 C74.61,234.17 75.00,231.70 75.00,226.53 C75.00,222.70 75.15,220.63 74.19,219.67 C72.97,218.45 69.93,219.03 62.47,220.07 C58.25,220.65 54.64,220.97 54.44,220.77 C54.24,220.57 53.63,212.21 53.09,202.20 C52.55,192.18 51.81,183.50 51.45,182.91 C50.82,181.90 45.14,182.21 37.60,183.66 L 34.71 184.22 L 35.29 196.36 C35.78,206.63 38.08,227.35 39.66,235.88 ZM 195.75 203.38 C192.96,205.14 187.65,206.31 186.70,205.37 C185.70,204.36 185.86,194.76 186.91,193.10 C188.01,191.37 195.87,192.19 197.13,194.17 C198.84,196.88 198.09,201.90 195.75,203.38 ZM 245.96 213.25 C246.00,215.67 245.63,216.00 242.87,216.00 C239.83,216.00 239.76,215.89 240.32,212.41 C240.64,210.44 241.46,208.16 242.13,207.34 C243.19,206.07 243.53,206.18 244.64,208.18 C245.35,209.46 245.95,211.74 245.96,213.25 Z" fill="rgba(193,45,42,1)"/>
<path d="M 282.00 242.08 C274.72,239.78 272.00,238.25 272.00,236.43 C272.00,235.61 273.15,232.66 274.56,229.88 C276.57,225.91 277.48,224.99 278.81,225.57 C289.91,230.41 296.29,231.01 296.82,227.26 C297.09,225.33 295.92,224.42 288.53,220.84 C277.11,215.31 274.00,211.80 274.00,204.40 C274.00,198.20 275.04,195.59 278.87,192.13 C285.00,186.61 295.68,184.49 303.93,187.15 C312.24,189.84 316.00,191.31 316.01,191.89 C316.02,192.22 314.78,195.30 313.26,198.72 C310.36,205.27 309.23,205.92 305.00,203.50 C302.22,201.91 294.26,201.55 292.10,202.91 C289.45,204.60 291.97,207.00 300.55,210.97 C311.43,215.99 315.90,221.02 315.96,228.32 C316.02,234.49 312.19,240.05 306.13,242.59 C301.55,244.51 288.84,244.24 282.00,242.08 ZM 252.16 236.88 C251.66,235.57 250.84,233.15 250.35,231.50 C249.48,228.57 249.30,228.49 242.24,228.21 L 235.02 227.91 L 233.37 232.04 L 231.72 236.16 L 225.61 235.47 C218.13,234.62 216.91,233.78 217.98,230.20 C219.90,223.78 226.11,207.46 231.53,194.62 L 237.38 180.74 L 244.75 181.30 C248.80,181.60 252.71,182.34 253.42,182.94 C254.14,183.53 255.02,186.48 255.37,189.48 C256.14,196.08 257.97,203.14 261.31,212.50 C265.10,223.12 267.00,230.42 267.00,234.40 C267.00,237.79 266.81,238.00 263.75,238.01 C261.96,238.02 258.83,238.30 256.79,238.64 C253.52,239.18 252.96,238.96 252.16,236.88 ZM 245.96 213.25 C245.95,211.74 245.35,209.46 244.64,208.18 C243.53,206.18 243.19,206.07 242.13,207.34 C241.46,208.16 240.64,210.44 240.32,212.41 C239.76,215.89 239.83,216.00 242.87,216.00 C245.63,216.00 246.00,215.67 245.96,213.25 ZM 39.66 235.88 C38.08,227.35 35.78,206.63 35.29,196.36 L 34.71 184.22 L 37.60 183.66 C45.14,182.21 50.82,181.90 51.45,182.91 C51.81,183.50 52.55,192.18 53.09,202.20 C53.63,212.21 54.24,220.57 54.44,220.77 C54.64,220.97 58.25,220.65 62.47,220.07 C75.78,218.22 75.00,217.81 75.00,226.53 C75.00,231.70 74.61,234.17 73.75,234.42 C73.06,234.61 67.55,235.27 61.50,235.89 C55.45,236.51 48.16,237.29 45.30,237.64 C40.40,238.23 40.08,238.13 39.66,235.88 ZM 196.94 230.41 C195.20,227.88 192.36,224.20 190.64,222.23 L 187.50 218.65 L 187.00 225.57 L 186.50 232.50 L 179.00 232.50 L 171.50 232.50 L 170.71 206.50 C169.75,174.66 168.55,177.00 185.86,177.01 C196.01,177.02 198.15,177.32 202.62,179.40 C215.87,185.57 218.91,201.96 208.43,210.72 C205.99,212.76 204.01,214.67 204.03,214.96 C204.04,215.26 205.89,217.52 208.12,220.00 C213.71,226.19 215.47,228.96 214.40,229.88 C213.10,231.01 202.97,235.00 201.41,235.00 C200.69,235.00 198.67,232.93 196.94,230.41 ZM 195.75 203.38 C198.09,201.90 198.84,196.88 197.13,194.17 C195.87,192.19 188.01,191.37 186.91,193.10 C185.86,194.76 185.70,204.36 186.70,205.37 C187.65,206.31 192.96,205.14 195.75,203.38 ZM 81.74 233.41 C81.33,233.00 81.00,230.46 81.00,227.75 C81.00,225.05 80.34,217.59 79.52,211.17 C78.71,204.75 77.92,195.00 77.77,189.50 L 77.50 179.50 L 96.80 179.23 L 116.09 178.96 L 115.80 185.72 C115.57,190.82 115.13,192.53 114.00,192.68 C113.18,192.79 108.54,193.18 103.69,193.54 L 94.89 194.19 L 95.19 197.34 L 95.50 200.50 L 103.50 200.50 L 111.50 200.50 L 111.81 205.33 C112.22,211.84 111.03,213.00 103.96,213.00 C97.32,213.00 95.00,213.66 95.00,215.54 C95.00,218.75 97.49,219.51 106.42,219.00 C111.25,218.73 115.63,218.77 116.15,219.09 C116.68,219.42 116.97,222.34 116.80,225.59 L 116.50 231.50 L 111.50 232.11 C101.75,233.29 82.47,234.14 81.74,233.41 ZM 134.64 218.05 C134.28,210.38 133.70,202.06 133.35,199.55 L 132.73 195.00 L 126.97 195.00 C122.64,195.00 121.06,194.61 120.61,193.42 C119.76,191.21 119.88,181.74 120.77,180.36 C121.26,179.59 128.26,179.11 142.49,178.86 L 163.49 178.50 L 164.26 185.43 C164.75,189.85 164.66,192.74 164.01,193.39 C163.45,193.95 160.07,194.59 156.50,194.82 L 150.00 195.23 L 150.00 213.62 L 150.00 232.00 L 142.65 232.00 L 135.31 232.00 L 134.64 218.05 ZM 268.50 175.43 C267.40,175.16 263.35,174.23 259.50,173.36 C252.12,171.68 240.02,166.69 239.98,165.31 C239.92,163.30 247.65,150.02 248.88,150.01 C249.63,150.00 253.05,151.37 256.46,153.06 C264.27,156.90 272.84,157.99 276.47,155.61 C277.86,154.70 279.00,153.33 279.00,152.57 C279.00,150.46 273.65,146.40 268.29,144.45 C249.29,137.52 243.07,131.35 243.02,119.37 C242.99,112.70 245.19,107.52 250.34,102.17 C257.38,94.84 265.18,92.03 278.50,92.01 C290.55,92.00 310.49,96.50 311.64,99.49 C312.12,100.76 303.55,119.54 302.06,120.46 C301.70,120.68 299.41,119.93 296.96,118.80 C294.11,117.48 289.61,116.56 284.50,116.26 C277.29,115.83 276.31,115.99 274.59,117.89 C271.92,120.86 273.63,124.18 279.17,126.77 C281.55,127.89 287.33,130.57 292.01,132.73 C303.40,137.97 307.99,143.80 307.99,153.00 C307.99,161.54 301.25,170.36 292.43,173.37 C287.55,175.04 272.35,176.34 268.50,175.43 ZM 60.55 168.17 C59.74,165.59 58.29,158.11 56.46,147.00 C52.58,123.37 51.40,118.00 50.11,118.00 C49.70,118.00 45.22,118.88 40.17,119.96 C35.11,121.04 30.32,121.68 29.52,121.37 C28.71,121.06 27.79,119.16 27.47,117.15 C27.14,115.14 26.48,111.47 25.99,109.00 C24.00,98.97 23.83,96.22 25.18,95.35 C25.91,94.88 30.33,93.99 35.00,93.36 C49.61,91.40 66.10,89.06 76.50,87.47 C82.00,86.63 89.02,85.68 92.11,85.35 L 97.71 84.75 L 98.44 97.49 C98.84,104.50 98.79,110.59 98.33,111.03 C97.88,111.47 93.24,112.34 88.03,112.96 C82.82,113.58 78.30,114.52 77.98,115.04 C77.20,116.30 78.92,130.63 83.04,157.22 C83.70,161.47 84.00,165.57 83.71,166.33 C83.37,167.21 80.70,167.96 76.34,168.41 C72.58,168.79 67.64,169.36 65.36,169.67 C61.77,170.17 61.12,169.96 60.55,168.17 ZM 207.50 165.95 C202.55,165.54 194.88,165.16 190.45,165.11 C185.66,165.04 181.91,164.51 181.20,163.80 C180.31,162.91 180.00,152.64 180.00,123.80 L 180.00 85.00 L 211.50 85.00 C228.82,85.00 243.00,85.34 243.00,85.75 C243.00,87.42 238.82,104.60 238.07,106.00 C237.40,107.24 234.42,107.50 220.88,107.50 L 204.50 107.50 L 204.19 112.39 C204.02,115.08 204.24,117.64 204.69,118.07 C205.14,118.51 211.03,119.19 217.79,119.58 L 230.08 120.29 L 229.42 124.89 C229.05,127.43 228.45,131.30 228.08,133.50 L 227.41 137.50 L 215.33 137.27 L 203.25 137.04 L 202.61 141.05 C201.46,148.24 202.57,149.00 214.29,149.01 C219.90,149.01 226.87,149.30 229.77,149.65 C234.52,150.22 234.99,150.49 234.49,152.39 C230.31,168.19 231.21,167.03 223.27,166.84 C219.55,166.75 212.45,166.35 207.50,165.95 ZM 112.54 165.07 C111.28,163.03 105.06,108.74 104.75,97.10 L 104.50 87.70 L 109.50 86.46 C122.01,83.35 124.82,83.00 137.28,83.00 C147.83,83.00 151.59,83.39 155.76,84.91 C162.58,87.41 168.54,92.20 171.23,97.36 C174.12,102.91 174.33,114.88 171.63,120.00 C169.07,124.85 163.22,130.80 158.75,133.11 C156.69,134.17 155.00,135.51 155.00,136.09 C155.00,136.66 159.07,141.67 164.04,147.20 C169.01,152.74 172.91,157.77 172.71,158.37 C172.31,159.58 166.32,161.85 158.07,163.92 L 152.64 165.28 L 149.57 161.79 C147.88,159.88 143.35,154.77 139.50,150.44 L 132.50 142.58 L 132.00 153.04 L 131.50 163.50 L 125.00 164.64 C116.63,166.11 113.26,166.23 112.54,165.07 ZM 140.27 123.10 C146.42,120.46 149.00,116.89 149.00,110.99 C149.00,104.44 147.57,103.50 137.60,103.50 L 129.50 103.50 L 129.17 108.00 C128.99,110.47 129.14,115.31 129.50,118.75 C130.14,124.79 130.25,125.00 133.00,125.00 C134.56,125.00 137.83,124.15 140.27,123.10 Z" fill="rgba(239,214,110,1)"/>
</g>
</svg>